<svg id="shop-2-svgrepo-com" xmlns="http://www.w3.org/2000/svg" width="16.648" height="16.067" viewBox="0 0 16.648 16.067">
  <path id="Path_23" data-name="Path 23" d="M13.276,2H6.264a3.42,3.42,0,0,0-1.771.231c-.374.231-.582.648-1,1.481L2.407,6.459a1.953,1.953,0,0,0-.048,1.919A1.549,1.549,0,0,0,5.124,7.42a1.549,1.549,0,1,0,3.1,0,1.549,1.549,0,0,0,3.1,0,1.549,1.549,0,1,0,3.1,0,1.549,1.549,0,0,0,2.765.958,1.953,1.953,0,0,0-.048-1.919L16.047,3.712c-.417-.833-.625-1.25-1-1.481A3.42,3.42,0,0,0,13.276,2Z" transform="translate(-1.447 -2)" fill="#b8b8b8"/>
  <path id="Path_24" data-name="Path 24" d="M15.768,19.134h1.549a.581.581,0,0,1,0,1.161H1.831a.581.581,0,0,1,0-1.161H3.379V12.358a2.7,2.7,0,0,0,1.549-.486,2.712,2.712,0,0,0,3.1,0,2.712,2.712,0,0,0,3.1,0,2.712,2.712,0,0,0,3.1,0,2.7,2.7,0,0,0,1.549.486Zm-8.13,0H11.51V17a2.877,2.877,0,0,0-.156-1.355,1.162,1.162,0,0,0-.425-.425,2.878,2.878,0,0,0-1.355-.156,2.878,2.878,0,0,0-1.355.156,1.162,1.162,0,0,0-.425.425A2.877,2.877,0,0,0,7.638,17Z" transform="translate(-1.25 -4.228)" fill="#b8b8b8" fill-rule="evenodd"/>
</svg>
