<svg xmlns="http://www.w3.org/2000/svg" width="13.893" height="15.437" viewBox="0 0 13.893 15.437">
  <path id="document-text-svgrepo-com" d="M113,67.574c-.9-.9-2.36-.9-5.27-.9h-1.544c-2.911,0-4.366,0-5.27.9s-.9,2.36-.9,5.27v3.087c0,2.911,0,4.366.9,5.27s2.36.9,5.27.9h1.544c2.911,0,4.366,0,5.27-.9s.9-2.36.9-5.27V72.845C113.9,69.934,113.9,68.478,113,67.574Zm-5.271,10.48h-3.859a.579.579,0,1,1,0-1.158h3.859a.579.579,0,0,1,0,1.158Zm2.316-3.087h-6.175a.579.579,0,1,1,0-1.158h6.175a.579.579,0,0,1,0,1.158Zm0-3.087h-6.175a.579.579,0,1,1,0-1.158h6.175a.579.579,0,0,1,0,1.158Z" transform="translate(-100.01 -66.67)" fill="#b8b8b8"/>
</svg>
