<svg xmlns="http://www.w3.org/2000/svg" width="19.535" height="16.809" viewBox="0 0 19.535 16.809">
  <path id="email-svgrepo-com" d="M59.738,92.931a5.375,5.375,0,0,0-3.757-1.261H46.894a5.375,5.375,0,0,0-3.757,1.261,5.178,5.178,0,0,0-1.467,3.963v6.36a5.178,5.178,0,0,0,1.467,3.963,5.375,5.375,0,0,0,3.757,1.261h9.086a5.375,5.375,0,0,0,3.757-1.261,5.178,5.178,0,0,0,1.467-3.963v-6.36a5.178,5.178,0,0,0-1.467-3.963Zm-1.733,3.838-5.04,3.895a2.5,2.5,0,0,1-3.056,0l-5.04-3.895a.682.682,0,0,1,.833-1.079l5.04,3.894a1.135,1.135,0,0,0,1.389,0l5.04-3.894a.682.682,0,0,1,.834,1.079Z" transform="translate(-41.67 -91.67)" fill="#b8b8b8" fill-rule="evenodd"/>
</svg>
