<svg xmlns="http://www.w3.org/2000/svg" width="16.648" height="16.648" viewBox="0 0 16.648 16.648">
  <path id="phone-calling-rounded-svgrepo-com" d="M139.614,134.7l.675,1.21a2.947,2.947,0,0,1-.595,3.484h0s-1.164,1.164.947,3.275,3.274.947,3.275.947h0a2.946,2.946,0,0,1,3.484-.595l1.21.675a2.934,2.934,0,0,1,.394,4.682,4.825,4.825,0,0,1-3.117,1.593,13.036,13.036,0,0,1-12.549-12.549,4.825,4.825,0,0,1,1.593-3.117,2.934,2.934,0,0,1,4.682.394Z" transform="translate(-133.332 -133.331)" fill="#b8b8b8"/>
</svg>
