<?xml version="1.0" encoding="UTF-8"?>
<svg id="Layer_2" data-name="Layer 2" xmlns="http://www.w3.org/2000/svg" viewBox="0 0 15 19.87">
  <defs>
    <style>
      .cls-1 {
        fill: #313131;
      }
    </style>
  </defs>
  <g id="Layer_1-2" data-name="Layer 1">
    <g>
      <path class="cls-1" d="M2.25,7.66L6.5,3.41v11.5c0,.55.45,1,1,1s1-.45,1-1V3.41l4.25,4.25c.39.39,1.02.39,1.41,0s.39-1.02,0-1.41L8.21.29c-.1-.1-.21-.17-.33-.22-.12-.05-.25-.08-.38-.08h0c-.13,0-.26.03-.38.08-.12.05-.23.12-.33.22L.84,6.25c-.39.39-.39,1.02,0,1.41s1.02.39,1.41,0Z"/>
      <path class="cls-1" d="M14,17.87H1c-.55,0-1,.45-1,1s.45,1,1,1h13c.55,0,1-.45,1-1s-.45-1-1-1Z"/>
    </g>
  </g>
</svg>