<svg xmlns="http://www.w3.org/2000/svg" xmlns:xlink="http://www.w3.org/1999/xlink" width="365.963" height="394.337" viewBox="0 0 365.963 394.337">
  <defs>
    <clipPath id="clip-path">
      <rect id="Rectangle_1" data-name="Rectangle 1" width="365.963" height="341.443" fill="none" stroke="#fff" stroke-width="1"/>
    </clipPath>
    <clipPath id="clip-path-2">
      <rect id="Rectangle_6" data-name="Rectangle 6" width="361.069" height="18.611" transform="translate(0 0)" fill="#fff"/>
    </clipPath>
  </defs>
  <g id="logo" transform="translate(-32.019 -163.969)">
    <g id="Group_2" data-name="Group 2" transform="translate(32.019 163.969)">
      <g id="Group_1" data-name="Group 1" transform="translate(0 0)" clip-path="url(#clip-path)">
        <path id="Path_1" data-name="Path 1" d="M236.415,160.905l-18.592-38.235a2.293,2.293,0,0,0-2.222-1.4H169.279c-1.4,0-2.1.817-2.1,2.339v35.428a4.491,4.491,0,0,1-4.559,4.559H123.094a4.644,4.644,0,0,1-4.561-4.559V6.21A4.508,4.508,0,0,1,123.094,2H232.438A59.394,59.394,0,0,1,287.51,38.365a61.34,61.34,0,0,1,0,46.42,58.238,58.238,0,0,1-12.977,18.942,58.025,58.025,0,0,1-6.9,6.2,1.989,1.989,0,0,0-.7,2.69l21.748,44.549a4.406,4.406,0,0,1-4.093,6.43H240.506A4.526,4.526,0,0,1,236.415,160.905ZM167.175,42.925V82.447h55.441a20.584,20.584,0,0,0,20.813-21.4,19.067,19.067,0,0,0-6.314-14.382A20.394,20.394,0,0,0,222.383,40.7h-53.1C167.876,40.7,167.175,41.405,167.175,42.925Z" transform="translate(70.699 1.193)" fill="none" stroke="#fff" stroke-miterlimit="10" stroke-width="4"/>
        <path id="Path_2" data-name="Path 2" d="M172.991,205.3a41.376,41.376,0,0,1,3.091,14.9,50.877,50.877,0,0,1-3.863,20.308c-3.423,8.279-9.382,14.9-17.661,19.871-13.137,7.837-34.993,11.7-65.571,11.81q-43.878,0-62.589-10.155c-14.9-8.279-22.962-20.864-24.175-37.531A28.372,28.372,0,0,1,2,219.986a4.382,4.382,0,0,1,4.306-4.306H43.838a4.129,4.129,0,0,1,3.974,4.085,6.758,6.758,0,0,0,.552,2.65c2.318,9.271,15.011,13.134,40.622,13.134,14.9,0,25.5-.993,31.792-2.87,6.292-1.988,9.382-5.629,9.382-10.928,0-5.851-2.979-9.823-8.83-11.921s-16.669-3.2-32.344-3.2H71.876a4.242,4.242,0,0,1-4.306-4.306V180.356a4.149,4.149,0,0,1,4.306-4.192H88.986c15.123,0,25.72-1.106,31.9-3.2s9.272-6.181,9.272-12.251c0-5.188-3.091-8.721-9.382-10.707-6.292-2.1-16.889-3.092-31.792-3.092-25.941,0-38.746,4.306-40.954,13.579,0,.439-.11,1.212-.22,2.316a4.1,4.1,0,0,1-4.2,4.084H6.306A4.382,4.382,0,0,1,2,162.584v-3.862c1.215-17,9.274-29.7,24.4-37.976q18.71-10.429,62.589-10.375,45.867,0,65.571,11.922c8.279,4.968,14.239,11.592,17.661,19.869a50.312,50.312,0,0,1,3.863,20.422,39.684,39.684,0,0,1-3.091,14.461,25.789,25.789,0,0,1-10.045,12.365,2.165,2.165,0,0,0,0,3.641A23.648,23.648,0,0,1,172.991,205.3Z" transform="translate(1.193 65.83)" fill="none" stroke="#fff" stroke-miterlimit="10" stroke-width="4"/>
        <path id="Path_3" data-name="Path 3" d="M292.273,220.345c-.11,8.167-1.323,14.9-3.643,20.09a44.96,44.96,0,0,1-17.882,20.2q-19.7,11.755-65.571,11.7c-22.077,0-38.966-2.648-51.219-6.734a51.633,51.633,0,0,1-25.941-19.869c-5.3-7.947-8.279-20.422-9.164-31.46-.441-5.631-.661-12.143-.661-19.761v-6.071a147.409,147.409,0,0,1,2.1-26.934,70.976,70.976,0,0,1,7.839-21.525,44.179,44.179,0,0,1,15.343-16.228c12.915-8.389,33.447-13.246,61.706-13.246q45.867,0,65.571,11.921A43.119,43.119,0,0,1,288.63,142.3a48.346,48.346,0,0,1,3.423,15.674c.33,2.318-1.988,4.526-4.306,4.526H249.994a3.732,3.732,0,0,1-4.084-3.421c-.993-4.636-4.526-7.839-10.6-9.494s-16.116-2.538-30.136-2.538c-16.668,0-27.706,1.656-32.895,4.856s-7.837,10.487-8.169,21.637a2.026,2.026,0,0,0,3.091,1.766c7.506-4.526,20.2-6.734,37.973-6.734q45.867,0,65.571,11.7a43.354,43.354,0,0,1,17.882,19.98C290.949,205.663,292.163,212.4,292.273,220.345Zm-55.524,12.473c5.519-1.988,8.61-6.181,9.382-12.473-.773-6.183-3.863-10.267-9.382-12.143-5.519-1.988-16.006-2.981-31.571-2.981-27.928,0-41.064,4.746-41.064,15.233s13.136,15.233,41.064,15.233C220.742,235.689,231.229,234.694,236.748,232.819Z" transform="translate(70.496 65.913)" fill="none" stroke="#fff" stroke-miterlimit="10" stroke-width="4"/>
        <path id="Path_4" data-name="Path 4" d="M171.522,84.785a59.846,59.846,0,0,1-31.8,31.921,61.1,61.1,0,0,1-23.268,4.561H50.642v37.767a4.491,4.491,0,0,1-4.559,4.559H6.561A4.644,4.644,0,0,1,2,159.034V6.21A4.508,4.508,0,0,1,6.561,2H116.449a61.979,61.979,0,0,1,23.268,4.561,59.635,59.635,0,0,1,31.8,31.8A61.355,61.355,0,0,1,171.522,84.785Zm-50.513-8.3A20.133,20.133,0,0,0,127.557,62.1a19.6,19.6,0,0,0-6.081-15.085,20.078,20.078,0,0,0-14.85-6.314H52.748c-1.4,0-2.106.7-2.106,2.222v37.3a2,2,0,0,0,2.106,2.221h53.411A20.661,20.661,0,0,0,121.009,76.484Z" transform="translate(1.193 1.193)" fill="none" stroke="#fff" stroke-miterlimit="10" stroke-width="4"/>
      </g>
    </g>
    <g id="Group_3" data-name="Group 3" transform="translate(34.466 539.694)">
      <g id="Group_3-2" data-name="Group 3" clip-path="url(#clip-path-2)">
        <path id="Path_5" data-name="Path 5" d="M17.088,4.748H5.51c-.152,0-.229.076-.229.241V6.957A.217.217,0,0,0,5.51,7.2H16.022a.488.488,0,0,1,.5.495v3.25a.5.5,0,0,1-.5.47H5.51c-.152,0-.229.089-.229.254V17.6a.488.488,0,0,1-.5.495H.5A.5.5,0,0,1,0,17.6V1A.49.49,0,0,1,.5.546H17.088a.484.484,0,0,1,.47.457v3.25a.5.5,0,0,1-.47.5" fill="#fff"/>
        <path id="Path_6" data-name="Path 6" d="M29.974,18.611a10.951,10.951,0,0,1-6.855-1.9,7.343,7.343,0,0,1-2.4-3.111,10.931,10.931,0,0,1-.774-4.291V1a.472.472,0,0,1,.5-.457h4.291A.477.477,0,0,1,25.213,1v8.3a6.2,6.2,0,0,0,.622,2.908,3.646,3.646,0,0,0,1.524,1.307,4.164,4.164,0,0,0,.927.241,8.6,8.6,0,0,0,.863.1c.2.013.482.013.825.013s.622,0,.812-.013a7.866,7.866,0,0,0,.864-.1,3.261,3.261,0,0,0,1.714-.736,3.19,3.19,0,0,0,1.13-2.018,6.883,6.883,0,0,0,.19-1.7V1a.472.472,0,0,1,.5-.457H39.47A.488.488,0,0,1,39.965,1v8.3a10.939,10.939,0,0,1-.762,4.266,7.3,7.3,0,0,1-2.361,3.136,8.656,8.656,0,0,1-3.326,1.536,15.583,15.583,0,0,1-3.542.368" fill="#fff"/>
        <path id="Path_7" data-name="Path 7" d="M60.684,4.748H48.712c-.152,0-.228.076-.228.241V6.957a.216.216,0,0,0,.228.241H59.618a.488.488,0,0,1,.495.495v3.25a.5.5,0,0,1-.495.47H48.712c-.152,0-.228.089-.228.254v1.955c0,.165.076.254.228.254H60.684a.489.489,0,0,1,.457.495V17.6a.49.49,0,0,1-.457.495H43.7a.5.5,0,0,1-.5-.495V1a.489.489,0,0,1,.5-.457H60.684A.472.472,0,0,1,61.141,1v3.25a.49.49,0,0,1-.457.5" fill="#fff"/>
        <path id="Path_8" data-name="Path 8" d="M69.9,13.876H81.478a.5.5,0,0,1,.47.495V17.6a.5.5,0,0,1-.47.495H64.885a.5.5,0,0,1-.5-.495V1a.49.49,0,0,1,.5-.457h4.291A.489.489,0,0,1,69.671,1V13.622c0,.165.077.254.229.254" fill="#fff"/>
        <path id="Path_9" data-name="Path 9" d="M89.058,18.091H84.767a.5.5,0,0,1-.495-.495V1a.489.489,0,0,1,.495-.457h4.291a.489.489,0,0,1,.5.457V17.6a.488.488,0,0,1-.5.495" fill="#fff"/>
        <path id="Path_10" data-name="Path 10" d="M108.837,10.753V1a.484.484,0,0,1,.47-.457H113.6a.49.49,0,0,1,.5.457V17.6a.5.5,0,0,1-.5.495h-6.081a.569.569,0,0,1-.394-.152l-8.29-9.395a.247.247,0,0,0-.419.19V17.6a.488.488,0,0,1-.5.495H93.628a.5.5,0,0,1-.495-.495V1a.489.489,0,0,1,.495-.457h5.434A.472.472,0,0,1,99.43.7l8.963,10.22a.252.252,0,0,0,.444-.165" fill="#fff"/>
        <path id="Path_11" data-name="Path 11" d="M139.179,18.091h-3.3a.5.5,0,0,1-.5-.495v-.279a.24.24,0,0,0-.368-.216,12.269,12.269,0,0,1-6.652,1.485,24.127,24.127,0,0,1-3.339-.216,15.739,15.739,0,0,1-2.984-.723,7.057,7.057,0,0,1-4.265-4.1,10.9,10.9,0,0,1-.724-4.24,10.893,10.893,0,0,1,.724-4.24A7.02,7.02,0,0,1,122.028.952a17.328,17.328,0,0,1,6.335-.9,17.038,17.038,0,0,1,6.3.9,7,7,0,0,1,4.279,4.114,9.811,9.811,0,0,1,.368,1.168.468.468,0,0,1-.47.6h-4.722a.462.462,0,0,1-.445-.254c-.774-1.561-2.552-2.336-5.306-2.348q-4.437,0-5.485,2.729a5.928,5.928,0,0,0-.368,2.349,5.856,5.856,0,0,0,.368,2.336q1.047,2.761,5.485,2.755a7.722,7.722,0,0,0,4.113-.9.269.269,0,0,0-.165-.469h-2.958a.5.5,0,0,1-.495-.47V9.306a.483.483,0,0,1,.495-.47h9.8a.46.46,0,0,1,.469.47c.013,1.181.038,3.935.051,8.29a.5.5,0,0,1-.495.495" fill="#fff"/>
        <path id="Path_12" data-name="Path 12" d="M166.727.546H171.5a.494.494,0,0,1,.445.7L163.832,17.8a.454.454,0,0,1-.444.292h-4.723a.456.456,0,0,1-.444-.292L150.185,1.244a.471.471,0,0,1,.444-.7h4.786a.42.42,0,0,1,.407.254l5,10.321a.228.228,0,0,0,.431,0L166.283.8a.461.461,0,0,1,.444-.254" fill="#fff"/>
        <path id="Path_13" data-name="Path 13" d="M179.067,18.091h-4.291a.5.5,0,0,1-.495-.495V1a.489.489,0,0,1,.495-.457h4.291a.489.489,0,0,1,.495.457V17.6a.488.488,0,0,1-.495.495" fill="#fff"/>
        <path id="Path_14" data-name="Path 14" d="M198.377,6.157a.461.461,0,0,1-.457-.444,1.253,1.253,0,0,0-.343-.775,2.383,2.383,0,0,0-1.193-.546,18.544,18.544,0,0,0-3.352-.241h-.241a16.344,16.344,0,0,0-3.3.267c-1.041.266-1.51.749-1.409,1.472a.9.9,0,0,0,.7.775,7.153,7.153,0,0,0,1.079.216l3.111.19c1.18.013,2.158.051,2.945.114s1.6.165,2.4.3a8.14,8.14,0,0,1,2.005.559,5.012,5.012,0,0,1,2.565,2.323,4.666,4.666,0,0,1,.47,2.209,5.852,5.852,0,0,1-.445,2.336A4.873,4.873,0,0,1,200.8,17.2c-1.562.9-4.139,1.346-7.744,1.358h-.115q-5.5,0-7.769-1.307a4.876,4.876,0,0,1-2.108-2.311,4.629,4.629,0,0,1-.418-1.612c0-.064-.013-.216-.026-.444a.5.5,0,0,1,.5-.5H187.6a.468.468,0,0,1,.482.445,1.019,1.019,0,0,0,.343.787,2.341,2.341,0,0,0,1.168.546,17.648,17.648,0,0,0,3.351.228h.115a17.1,17.1,0,0,0,3.275-.228c1.092-.241,1.612-.737,1.562-1.46a.905.905,0,0,0-.673-.825,3.257,3.257,0,0,0-1.079-.242l-3.174-.177c-1.155-.038-2.133-.077-2.92-.127s-1.587-.153-2.4-.292a8.533,8.533,0,0,1-2.005-.559,5.27,5.27,0,0,1-2.552-2.323,4.674,4.674,0,0,1-.47-2.222,5.723,5.723,0,0,1,.444-2.336,4.876,4.876,0,0,1,2.108-2.285Q187.44.006,192.943,0h.115q5.5,0,7.769,1.32a4.876,4.876,0,0,1,2.108,2.285,5.036,5.036,0,0,1,.419,1.8.758.758,0,0,1-.127.609.47.47,0,0,1-.343.14Z" fill="#fff"/>
        <path id="Path_15" data-name="Path 15" d="M211.225,18.091h-4.291a.5.5,0,0,1-.5-.495V1a.489.489,0,0,1,.5-.457h4.291A.489.489,0,0,1,211.72,1V17.6a.488.488,0,0,1-.495.495" fill="#fff"/>
        <path id="Path_16" data-name="Path 16" d="M232.248,17.709a14.408,14.408,0,0,1-2.97.7,22.72,22.72,0,0,1-3.339.177,17.3,17.3,0,0,1-6.335-.914,7.1,7.1,0,0,1-4.253-4.1,10.9,10.9,0,0,1-.724-4.241,10.9,10.9,0,0,1,.724-4.24A7.019,7.019,0,0,1,219.6.977a17.327,17.327,0,0,1,6.335-.9,17.047,17.047,0,0,1,6.3.9,7,7,0,0,1,4.278,4.113,10.981,10.981,0,0,1,.711,4.291,11.33,11.33,0,0,1-.711,4.241,6.776,6.776,0,0,1-4.266,4.087M229.633,4.976a7.548,7.548,0,0,0-3.694-.724q-4.437,0-5.485,2.743a5.851,5.851,0,0,0-.368,2.335,5.853,5.853,0,0,0,.368,2.336q1.049,2.724,5.485,2.73a8.014,8.014,0,0,0,3.719-.686,3.7,3.7,0,0,0,1.765-1.967,6.232,6.232,0,0,0,.343-2.349,6.566,6.566,0,0,0-.343-2.4,3.949,3.949,0,0,0-1.79-2.019" fill="#fff"/>
        <path id="Path_17" data-name="Path 17" d="M255.849,10.753V1a.484.484,0,0,1,.47-.457h4.291a.49.49,0,0,1,.5.457V17.6a.5.5,0,0,1-.5.495h-6.081a.569.569,0,0,1-.394-.152l-8.29-9.395a.247.247,0,0,0-.419.19V17.6a.488.488,0,0,1-.495.495H240.64a.5.5,0,0,1-.495-.495V1a.489.489,0,0,1,.495-.457h5.434a.472.472,0,0,1,.368.152l8.963,10.22a.252.252,0,0,0,.444-.165" fill="#fff"/>
        <path id="Path_18" data-name="Path 18" d="M272.023.545h5.268a.5.5,0,0,1,.445.254l8.137,16.593a.5.5,0,0,1-.431.7h-4.787a.454.454,0,0,1-.444-.292l-.889-1.815h-9.28l-.914,1.853a.455.455,0,0,1-.432.254H263.91a.478.478,0,0,1-.444-.7L271.6.8a.449.449,0,0,1,.419-.254m.444,11.223h4.367a.236.236,0,0,0,.2-.355l-2.158-4.457a.261.261,0,0,0-.444,0l-2.209,4.457a.25.25,0,0,0,.241.355" fill="#fff"/>
        <path id="Path_19" data-name="Path 19" d="M301.8,17.8l-2.018-4.152a.25.25,0,0,0-.241-.152h-5.827c-.153,0-.229.089-.229.254v3.846a.488.488,0,0,1-.495.5H288.7a.5.5,0,0,1-.495-.5V1A.488.488,0,0,1,288.7.546h12.67a6.448,6.448,0,0,1,5.979,3.948,6.662,6.662,0,0,1,0,5.04,6.337,6.337,0,0,1-1.409,2.057,6.223,6.223,0,0,1-.749.672.216.216,0,0,0-.076.292l2.361,4.837a.479.479,0,0,1-.444.7H302.25a.493.493,0,0,1-.445-.292M293.49,4.989V9.28h6.817a2.236,2.236,0,0,0,2.26-2.323,2.071,2.071,0,0,0-.685-1.562,2.218,2.218,0,0,0-1.6-.647h-6.563c-.153,0-.229.076-.229.241" fill="#fff"/>
        <path id="Path_20" data-name="Path 20" d="M315.58,18.091h-4.291a.5.5,0,0,1-.495-.495V1a.489.489,0,0,1,.495-.457h4.291a.489.489,0,0,1,.5.457V17.6a.488.488,0,0,1-.5.495" fill="#fff"/>
        <path id="Path_21" data-name="Path 21" d="M337.137,4.748H325.165c-.152,0-.228.076-.228.241V6.957a.216.216,0,0,0,.228.241h10.906a.488.488,0,0,1,.495.495v3.25a.5.5,0,0,1-.495.47H325.165c-.152,0-.228.089-.228.254v1.955c0,.165.076.254.228.254h11.972a.489.489,0,0,1,.457.495V17.6a.49.49,0,0,1-.457.495H320.151a.5.5,0,0,1-.495-.495V1a.489.489,0,0,1,.495-.457h16.986a.472.472,0,0,1,.457.457v3.25a.49.49,0,0,1-.457.5" fill="#fff"/>
        <path id="Path_22" data-name="Path 22" d="M356.078,6.157a.461.461,0,0,1-.457-.444,1.254,1.254,0,0,0-.343-.775,2.384,2.384,0,0,0-1.193-.546,18.544,18.544,0,0,0-3.352-.241h-.241a16.344,16.344,0,0,0-3.3.267c-1.041.266-1.51.749-1.409,1.472a.9.9,0,0,0,.7.775,7.153,7.153,0,0,0,1.079.216l3.111.19c1.18.013,2.158.051,2.945.114s1.6.165,2.4.3a8.139,8.139,0,0,1,2,.559,5.012,5.012,0,0,1,2.565,2.323,4.666,4.666,0,0,1,.47,2.209,5.852,5.852,0,0,1-.445,2.336A4.873,4.873,0,0,1,358.5,17.2c-1.562.9-4.139,1.346-7.744,1.358h-.115q-5.5,0-7.769-1.307a4.876,4.876,0,0,1-2.108-2.311,4.629,4.629,0,0,1-.418-1.612c0-.064-.013-.216-.026-.444a.5.5,0,0,1,.495-.5H345.3a.468.468,0,0,1,.482.445,1.019,1.019,0,0,0,.343.787,2.341,2.341,0,0,0,1.168.546,17.648,17.648,0,0,0,3.351.228h.115a17.1,17.1,0,0,0,3.275-.228c1.092-.241,1.612-.737,1.562-1.46a.905.905,0,0,0-.673-.825,3.257,3.257,0,0,0-1.079-.242l-3.174-.177c-1.155-.038-2.133-.077-2.92-.127s-1.587-.153-2.4-.292a8.533,8.533,0,0,1-2.005-.559,5.27,5.27,0,0,1-2.552-2.323,4.674,4.674,0,0,1-.47-2.222,5.723,5.723,0,0,1,.444-2.336,4.876,4.876,0,0,1,2.108-2.285Q345.141.006,350.644,0h.115q5.5,0,7.769,1.32a4.875,4.875,0,0,1,2.108,2.285,5.035,5.035,0,0,1,.419,1.8.758.758,0,0,1-.127.609.47.47,0,0,1-.343.14Z" fill="#fff"/>
      </g>
    </g>
  </g>
</svg>
